<?xml version="1.0" encoding="UTF-8" standalone="no"?>
<!-- Generator: Adobe Illustrator 19.0.0, SVG Export Plug-In . SVG Version: 6.00 Build 0)  -->

<svg
   version="1.1"
   id="Layer_1"
   x="0px"
   y="0px"
   viewBox="0 0 498.4 498.4"
   style="enable-background:new 0 0 498.4 498.4;"
   xml:space="preserve"
   sodipodi:docname="pen.svg"
   inkscape:version="1.1 (ce6663b3b7, 2021-05-25)"
   xmlns:inkscape="http://www.inkscape.org/namespaces/inkscape"
   xmlns:sodipodi="http://sodipodi.sourceforge.net/DTD/sodipodi-0.dtd"
   xmlns="http://www.w3.org/2000/svg"
   xmlns:svg="http://www.w3.org/2000/svg"><defs
   id="defs57" /><sodipodi:namedview
   id="namedview55"
   pagecolor="#505050"
   bordercolor="#eeeeee"
   borderopacity="1"
   inkscape:pageshadow="0"
   inkscape:pageopacity="0"
   inkscape:pagecheckerboard="0"
   showgrid="false"
   inkscape:zoom="1.0674157"
   inkscape:cx="394.87894"
   inkscape:cy="24.826315"
   inkscape:window-width="1302"
   inkscape:window-height="704"
   inkscape:window-x="1430"
   inkscape:window-y="27"
   inkscape:window-maximized="1"
   inkscape:current-layer="Layer_1" />
<g
   id="g6"
   transform="matrix(-1,0,0,1,498.4,0)">
	<polygon
   style="fill:#102d35"
   points="377.2,106.4 378.8,0 487.6,0 487.6,108.8 "
   id="polygon2" />
	<polygon
   style="fill:#102d35"
   points="318.8,89.6 378.8,0 487.6,108.8 398,169.6 "
   id="polygon4" />
</g>
<path
   style="fill:#efa91b"
   d="m 111.6,192.8 92,-92 136.8,44.8 88,235.2 -6.4,6.4 -100.8,-100.8 c 5.6,-13.6 2.4,-30.4 -8.8,-41.6 -15.2,-15.2 -40,-15.2 -55.2,0 -15.2,15.2 -15.2,40 0,55.2 11.2,11.2 27.2,14.4 41.6,8.8 l 99.2,101.6 -6.4,6.4 -235.2,-88 z"
   id="path8" />
<path
   style="fill:#d88f0e"
   d="m 310.8,245.6 c -15.2,-15.2 -40,-15.2 -55.2,0 -15.2,15.2 -15.2,40 0,55.2 11.2,11.2 27.2,14.4 41.6,8.8 l 100.8,100.8 -6.4,6.4 -235.2,-88 -44.8,-136.8 92,-91.2"
   id="path10" />
<polyline
   style="fill:#bc7400"
   points="342,329.6 386.8,192.8 294.8,100.8 "
   id="polyline12"
   transform="matrix(-1,0,0,1,498.4,0)" />
<path
   style="fill:#1ea4c4"
   d="m 70,197.6 c 13.6,13.6 35.2,13.6 48.8,0 l 88.8,-88.8 c 13.6,-13.6 13.6,-35.2 0,-48.8 v 0 C 194,46.4 172.4,46.4 158.8,60 L 70,148.8 c -13.6,12.8 -13.6,35.2 0,48.8 z"
   id="path14" />
<path
   style="fill:#0c7fa3"
   d="m 70,197.6 v 0 c 13.6,13.6 35.2,13.6 48.8,0 l 88.8,-88.8 c 13.6,-13.6 13.6,-35.2 0,-48.8 v 0"
   id="path16" />
<g
   id="g22"
   transform="matrix(-1,0,0,1,498.4,0)">
	<path
   style="fill:#0f2d35"
   d="m 470.8,498.4 h -412 c -26.4,0 -48,-20 -48,-46.4 0,-26.4 21.6,-47.2 48,-47.2 6.4,0 12,5.6 12,12 0,6.4 -5.6,12 -12,12 -13.6,0 -24,9.6 -24,22.4 0,12.8 10.4,22.4 24,22.4 h 412 c 6.4,0 12,5.6 12,12 0,6.4 -5.6,12.8 -12,12.8 z"
   id="path18" />
	<circle
   style="fill:#0f2d35"
   cx="68.400002"
   cy="417.60001"
   r="16.799999"
   id="circle20" />
</g>
<g
   id="g24">
</g>
<g
   id="g26">
</g>
<g
   id="g28">
</g>
<g
   id="g30">
</g>
<g
   id="g32">
</g>
<g
   id="g34">
</g>
<g
   id="g36">
</g>
<g
   id="g38">
</g>
<g
   id="g40">
</g>
<g
   id="g42">
</g>
<g
   id="g44">
</g>
<g
   id="g46">
</g>
<g
   id="g48">
</g>
<g
   id="g50">
</g>
<g
   id="g52">
</g>
</svg>
